<svg id="building_2_" data-name="building (2)" xmlns="http://www.w3.org/2000/svg" width="41.64" height="41.64" viewBox="0 0 41.64 41.64">
  <path id="Path_4385" data-name="Path 4385" d="M40.42,30.01H38.956V27.326a1.22,1.22,0,1,0-2.44,0V30.01H32.45V1.22A1.22,1.22,0,0,0,31.23,0H10.41A1.22,1.22,0,0,0,9.19,1.22V30.01H5.124V27.326a1.22,1.22,0,1,0-2.44,0V30.01H1.22A1.22,1.22,0,0,0,0,31.23v9.19a1.22,1.22,0,0,0,1.22,1.22h39.2a1.22,1.22,0,0,0,1.22-1.22V31.23A1.22,1.22,0,0,0,40.42,30.01ZM2.44,32.45H9.19V39.2H2.44ZM17.486,39.2V36.354h6.669V39.2Zm9.109,0V35.134a1.22,1.22,0,0,0-1.22-1.22H16.266a1.22,1.22,0,0,0-1.22,1.22V39.2H11.63V2.44H30.01V39.2Zm12.606,0H32.45V32.45H39.2Z" fill="#fd9800"/>
  <path id="Path_4386" data-name="Path 4386" d="M188.63,65H178.22a1.22,1.22,0,1,0,0,2.44h10.41a1.22,1.22,0,0,0,0-2.44Z" transform="translate(-162.605 -59.714)" fill="#fd9800"/>
  <path id="Path_4387" data-name="Path 4387" d="M187.521,129h-1.3a1.22,1.22,0,1,0,0,2.44h1.3a1.22,1.22,0,0,0,0-2.44Z" transform="translate(-169.954 -118.509)" fill="#fd9800"/>
  <path id="Path_4388" data-name="Path 4388" d="M283.521,129h-1.3a1.22,1.22,0,1,0,0,2.44h1.3a1.22,1.22,0,0,0,0-2.44Z" transform="translate(-258.147 -118.509)" fill="#fd9800"/>
  <path id="Path_4389" data-name="Path 4389" d="M187.521,193h-1.3a1.22,1.22,0,1,0,0,2.44h1.3a1.22,1.22,0,0,0,0-2.44Z" transform="translate(-169.954 -177.304)" fill="#fd9800"/>
  <path id="Path_4390" data-name="Path 4390" d="M283.521,193h-1.3a1.22,1.22,0,1,0,0,2.44h1.3a1.22,1.22,0,0,0,0-2.44Z" transform="translate(-258.147 -177.304)" fill="#fd9800"/>
  <path id="Path_4391" data-name="Path 4391" d="M187.521,257h-1.3a1.22,1.22,0,1,0,0,2.44h1.3a1.22,1.22,0,0,0,0-2.44Z" transform="translate(-169.954 -236.099)" fill="#fd9800"/>
  <path id="Path_4392" data-name="Path 4392" d="M283.521,257h-1.3a1.22,1.22,0,1,0,0,2.44h1.3a1.22,1.22,0,0,0,0-2.44Z" transform="translate(-258.147 -236.099)" fill="#fd9800"/>
  <path id="Path_4393" data-name="Path 4393" d="M187.521,321h-1.3a1.22,1.22,0,1,0,0,2.44h1.3a1.22,1.22,0,0,0,0-2.44Z" transform="translate(-169.954 -294.894)" fill="#fd9800"/>
  <path id="Path_4394" data-name="Path 4394" d="M283.521,321h-1.3a1.22,1.22,0,1,0,0,2.44h1.3a1.22,1.22,0,0,0,0-2.44Z" transform="translate(-258.147 -294.894)" fill="#fd9800"/>
</svg>
