<svg id="certificate" xmlns="http://www.w3.org/2000/svg" width="32.945" height="40.162" viewBox="0 0 32.945 40.162">
  <path id="Path_4395" data-name="Path 4395" d="M65.883,242a5.881,5.881,0,0,0-3.53,10.587v4.71a1.177,1.177,0,0,0,1.7,1.053l1.827-.914,1.827.914a1.177,1.177,0,0,0,1.7-1.053v-4.71A5.881,5.881,0,0,0,65.883,242Zm1.177,13.392-.651-.325a1.177,1.177,0,0,0-1.052,0l-.651.325v-1.745a5.9,5.9,0,0,0,2.353,0Zm-1.177-3.979a3.53,3.53,0,1,1,3.53-3.53A3.534,3.534,0,0,1,65.883,251.413Zm0,0" transform="translate(-55.294 -223.017)" fill="#fd9800"/>
  <path id="Path_4396" data-name="Path 4396" d="M1.177,0A1.177,1.177,0,0,0,0,1.177V38.985a1.177,1.177,0,0,0,1.177,1.177H22.356a1.182,1.182,0,0,0,.832-.345L32.6,30.4a1.182,1.182,0,0,0,.345-.832V1.177A1.177,1.177,0,0,0,31.769,0ZM2.353,2.353H30.592V28.4H22.356a1.177,1.177,0,0,0-1.177,1.177v8.236H2.353Zm26.575,28.4-5.4,5.4v-5.4Zm0,0" fill="#fd9800"/>
  <path id="Path_4397" data-name="Path 4397" d="M61.177,67.217H82.356a1.177,1.177,0,0,0,1.177-1.177V61.177A1.177,1.177,0,0,0,82.356,60H61.177A1.177,1.177,0,0,0,60,61.177V66.04A1.177,1.177,0,0,0,61.177,67.217Zm1.177-4.863H81.179v2.51H62.353Zm0,0" transform="translate(-55.294 -55.294)" fill="#fd9800"/>
  <path id="Path_4398" data-name="Path 4398" d="M61.177,184.353H82.356a1.177,1.177,0,0,0,0-2.353H61.177a1.177,1.177,0,0,0,0,2.353Zm0,0" transform="translate(-55.294 -167.724)" fill="#fd9800"/>
  <path id="Path_4399" data-name="Path 4399" d="M248.236,242h-7.06a1.177,1.177,0,0,0,0,2.353h7.06a1.177,1.177,0,0,0,0-2.353Zm0,0" transform="translate(-221.174 -223.017)" fill="#fd9800"/>
  <path id="Path_4400" data-name="Path 4400" d="M248.236,304.353a1.177,1.177,0,1,0,0-2.353h-7.06a1.177,1.177,0,1,0,0,2.353Zm0,0" transform="translate(-221.174 -278.311)" fill="#fd9800"/>
</svg>
