<svg id="house_2_" data-name="house (2)" xmlns="http://www.w3.org/2000/svg" width="44.815" height="44.815" viewBox="0 0 44.815 44.815">
  <path id="Path_4401" data-name="Path 4401" d="M43.5,37.437H39.563V22.382l.019.014a1.313,1.313,0,0,0,1.819-.276l3.151-4.2a1.312,1.312,0,0,0-.279-1.85L23.182.753a1.313,1.313,0,0,0-1.548,0l-8.5,6.176v-2.4a1.313,1.313,0,0,0-1.313-1.313H6.565A1.313,1.313,0,0,0,5.252,4.526v8.122L.541,16.069a1.313,1.313,0,0,0-.279,1.85l3.151,4.2a1.313,1.313,0,0,0,1.819.277l.019-.014V37.437H1.313a1.313,1.313,0,1,0,0,2.626h11l-1.676,3.352a1.313,1.313,0,0,0,1.174,1.9H32.911a1.313,1.313,0,0,0,1.174-1.9l-1.676-3.352H43.5a1.313,1.313,0,1,0,0-2.626ZM7.877,5.839H10.5v3L7.877,10.742ZM4.741,19.512l-1.577-2.1L22.407,3.436,41.651,17.41l-1.577,2.1L23.18,7.316a1.313,1.313,0,0,0-1.543,0l-16.9,12.2Zm3.137.974L22.407,10l14.53,10.49V37.437H31.6v-11.9a1.313,1.313,0,0,0-1.313-1.313H14.442a1.313,1.313,0,0,0-1.313,1.313v11.9H7.877ZM23.72,37.437V26.846h5.252V37.437Zm-7.965,0V26.846h5.339V37.437Zm-1.815,5.252,1.313-2.626h14.22l1.313,2.626Zm0,0" transform="translate(0 -0.5)" fill="#fd9800"/>
  <path id="Path_4402" data-name="Path 4402" d="M214.939,159.378A3.939,3.939,0,1,0,211,155.439,3.943,3.943,0,0,0,214.939,159.378Zm0-5.252a1.313,1.313,0,1,1-1.313,1.313A1.314,1.314,0,0,1,214.939,154.126Zm0,0" transform="translate(-192.531 -138.283)" fill="#fd9800"/>
</svg>
