<svg id="location" xmlns="http://www.w3.org/2000/svg" width="32.408" height="42.744" viewBox="0 0 32.408 42.744">
  <path id="Path_4624" data-name="Path 4624" d="M75.223,40.239H70.592a1.252,1.252,0,1,0,0,2.5H85.619a1.252,1.252,0,0,0,0-2.5H80.987A85.078,85.078,0,0,0,87.018,33c4.838-6.555,7.292-12.181,7.292-16.721A16.314,16.314,0,0,0,78.111,0H78.1A16.314,16.314,0,0,0,61.9,16.279c0,4.541,2.453,10.167,7.292,16.721a85.066,85.066,0,0,0,6.031,7.238ZM78.105,2.5A13.8,13.8,0,0,1,91.8,16.279c0,3.938-2.352,9.206-6.8,15.234a83.021,83.021,0,0,1-6.9,8.126,83.011,83.011,0,0,1-6.9-8.126c-4.45-6.029-6.8-11.3-6.8-15.234A13.8,13.8,0,0,1,78.105,2.5Z" transform="translate(-61.901)" fill="#fd9800"/>
  <path id="Path_4625" data-name="Path 4625" d="M143.54,71.267a11.27,11.27,0,1,0-11.27,11.27A11.283,11.283,0,0,0,143.54,71.267Zm-15.027,7.919v-.405a3.757,3.757,0,1,1,7.514,0v.405a8.755,8.755,0,0,1-7.514,0ZM123.5,71.267a8.766,8.766,0,1,1,14.9,6.255,6.262,6.262,0,0,0-12.268,0A8.739,8.739,0,0,1,123.5,71.267Z" transform="translate(-116.065 -54.988)" fill="#fd9800"/>
  <path id="Path_4626" data-name="Path 4626" d="M218.513,123.754a3.757,3.757,0,1,0-3.757,3.757A3.761,3.761,0,0,0,218.513,123.754Zm-3.757,1.252a1.252,1.252,0,1,1,1.252-1.252A1.254,1.254,0,0,1,214.756,125.006Z" transform="translate(-198.552 -109.979)" fill="#fd9800"/>
</svg>
