<svg xmlns="http://www.w3.org/2000/svg" xmlns:xlink="http://www.w3.org/1999/xlink" width="54.086" height="36.01" viewBox="0 0 54.086 36.01">
  <defs>
    <clipPath id="clip-path">
      <path id="Path_5" data-name="Path 5" d="M27.527-109.77a40.893,40.893,0,0,0-14.738,5.112c-2.578,1.569-6.2,4.481-5.753,4.629a15.753,15.753,0,0,0,3.477-1.4,52.957,52.957,0,0,1,12.756-4.19,40.181,40.181,0,0,1,9.5-.711,44.671,44.671,0,0,1,16.459,2.64,16.226,16.226,0,0,0,3.9.987c.645-.645-3.089-3.031-7.426-4.744a41.24,41.24,0,0,0-18.174-2.329" transform="translate(-7 110)" fill="#fd9800" clip-rule="evenodd"/>
    </clipPath>
  </defs>
  <g id="Group_87571" data-name="Group 87571" transform="translate(-5.156 110)">
    <g id="Group_87568" data-name="Group 87568" transform="translate(5.156 -98.152)">
      <path id="Path_6" data-name="Path 6" d="M12.01-48.66a6.335,6.335,0,0,1-3.474-.989,7.794,7.794,0,0,1-2.742-2.6A6.335,6.335,0,0,1,4.77-55.707v-8.332a1.233,1.233,0,0,1,.677-.972,2.781,2.781,0,0,1,1.58-.451,2.7,2.7,0,0,1,1.562.451,1.234,1.234,0,0,1,.66.972v8.332a2.851,2.851,0,0,0,.417,1.493,3.67,3.67,0,0,0,1.111,1.163,2.672,2.672,0,0,0,1.527.469,2.721,2.721,0,0,0,1.545-.451,3.456,3.456,0,0,0,1.094-1.18,2.974,2.974,0,0,0,.417-1.493v-8.366a1.172,1.172,0,0,1,.677-.972,2.887,2.887,0,0,1,1.545-.417,2.892,2.892,0,0,1,1.632.417,1.178,1.178,0,0,1,.625.972v8.366a6.392,6.392,0,0,1-1.024,3.489,7.647,7.647,0,0,1-2.742,2.586A8.717,8.717,0,0,1,12.01-48.66Zm13.346-.312a2.66,2.66,0,0,1-1.6-.451,1.24,1.24,0,0,1-.625-.972V-64.074a1.145,1.145,0,0,1,.625-1.007,3.021,3.021,0,0,1,1.6-.382,2.478,2.478,0,0,1,1.406.382,1.162,1.162,0,0,1,.573,1.007v1.041a5.089,5.089,0,0,1,1.718-1.823,5.088,5.088,0,0,1,2.933-.816,5.067,5.067,0,0,1,2.985.955,6.891,6.891,0,0,1,2.17,2.552,7.669,7.669,0,0,1,.816,3.541V-50.4a1.146,1.146,0,0,1-.694,1.059,3.309,3.309,0,0,1-1.562.365,3.3,3.3,0,0,1-1.493-.365,1.145,1.145,0,0,1-.729-1.059v-8.227a2.945,2.945,0,0,0-.4-1.493,3.494,3.494,0,0,0-1.094-1.163,2.673,2.673,0,0,0-1.527-.469,2.67,2.67,0,0,0-1.354.382,3,3,0,0,0-1.076,1.076,3.18,3.18,0,0,0-.417,1.666V-50.4a1.234,1.234,0,0,1-.66.972A2.76,2.76,0,0,1,25.356-48.973Zm18.156,0a2.66,2.66,0,0,1-1.6-.451,1.24,1.24,0,0,1-.625-.972V-64.074a1.145,1.145,0,0,1,.625-1.007,3.021,3.021,0,0,1,1.6-.382,3.137,3.137,0,0,1,1.6.382,1.139,1.139,0,0,1,.66,1.007V-50.4a1.234,1.234,0,0,1-.66.972A2.76,2.76,0,0,1,43.512-48.973Zm12.046,0a7.356,7.356,0,0,1-4.773-1.354,5.209,5.209,0,0,1-1.649-4.27V-71.433a1.138,1.138,0,0,1,.729-1.007,3.182,3.182,0,0,1,1.493-.382,3.216,3.216,0,0,1,1.545.382,1.137,1.137,0,0,1,.712,1.007v5.971h4.1a.934.934,0,0,1,.851.5,2.189,2.189,0,0,1,.3,1.128,2.189,2.189,0,0,1-.3,1.128.934.934,0,0,1-.851.5h-4.1v7.6a1.921,1.921,0,0,0,.434,1.423,2.163,2.163,0,0,0,1.51.417h1.354a1.728,1.728,0,0,1,1.441.59,2.022,2.022,0,0,1,.469,1.284,2.069,2.069,0,0,1-.469,1.319,1.728,1.728,0,0,1-1.441.59Z" transform="translate(-4.77 72.822)" fill="#0c2869"/>
      <g id="Ellipse_386" data-name="Ellipse 386" transform="translate(36.1 5.182)" fill="#fd9800" stroke="#fff" stroke-width="2">
        <circle cx="2.62" cy="2.62" r="2.62" stroke="none"/>
        <circle cx="2.62" cy="2.62" r="3.62" fill="none"/>
      </g>
    </g>
    <g id="Group_87569" data-name="Group 87569" transform="translate(5.76 -110)" clip-path="url(#clip-path)">
      <path id="Path_4" data-name="Path 4" d="M2-115H51.475v13.251H2Z" transform="translate(-3.638 113.362)" fill="#fd9800"/>
    </g>
  </g>
</svg>
