<svg xmlns="http://www.w3.org/2000/svg" xmlns:xlink="http://www.w3.org/1999/xlink" width="255.336" height="170" viewBox="0 0 255.336 170">
  <defs>
    <clipPath id="clip-path">
      <path id="Path_5" data-name="Path 5" d="M103.908-108.913C80.169-105.679,53.432-96.405,34.333-84.78,22.164-77.371,5.08-63.625,7.176-62.926c.906.3,8.292-2.662,16.413-6.586A250,250,0,0,1,83.809-89.292c13.887-2.789,22.112-3.406,44.837-3.355,31.607.07,47.475,2.614,77.7,12.465,9.573,3.118,17.859,5.217,18.416,4.661,3.046-3.046-14.584-14.311-35.056-22.4-24.5-9.679-61.069-14.365-85.8-11" transform="translate(-7 110)" fill="#fd9800" clip-rule="evenodd"/>
    </clipPath>
  </defs>
  <g id="Group_87570" data-name="Group 87570" transform="translate(-5.156 110)">
    <g id="Group_87568" data-name="Group 87568" transform="translate(5.156 -54.065)">
      <path id="Path_6" data-name="Path 6" d="M38.951,41.243c-6.555,0-10.991-1.557-16.4-4.671A36.8,36.8,0,0,1,9.6,24.281,29.906,29.906,0,0,1,4.77,7.974V-31.359q0-2.458,3.2-4.589a13.127,13.127,0,0,1,7.457-2.131A12.74,12.74,0,0,1,22.8-35.947q3.114,2.131,3.114,4.589V7.974a13.461,13.461,0,0,0,1.967,7.047,17.326,17.326,0,0,0,5.244,5.49,12.617,12.617,0,0,0,7.211,2.212,12.845,12.845,0,0,0,7.293-2.131,16.316,16.316,0,0,0,5.162-5.572,14.042,14.042,0,0,0,1.967-7.047v-39.5q0-2.622,3.2-4.589a13.631,13.631,0,0,1,7.293-1.967,13.651,13.651,0,0,1,7.7,1.967q2.95,1.967,2.95,4.589v39.5a30.176,30.176,0,0,1-4.835,16.471,36.1,36.1,0,0,1-12.947,12.21C52.707,39.714,45.288,41.243,38.951,41.243Zm63-1.475a12.559,12.559,0,0,1-7.539-2.131q-2.95-2.131-2.95-4.589V-31.523a5.406,5.406,0,0,1,2.95-4.753,14.263,14.263,0,0,1,7.539-1.8,11.7,11.7,0,0,1,6.637,1.8,5.484,5.484,0,0,1,2.7,4.753v4.917a24.024,24.024,0,0,1,8.112-8.6,24.02,24.02,0,0,1,13.848-3.851,23.919,23.919,0,0,1,14.094,4.507,32.533,32.533,0,0,1,10.243,12.046,36.2,36.2,0,0,1,3.851,16.716V33.049a5.412,5.412,0,0,1-3.278,5,15.962,15.962,0,0,1-14.422,0q-3.442-1.721-3.442-5V-5.792a13.9,13.9,0,0,0-1.885-7.047,16.493,16.493,0,0,0-5.162-5.49,12.617,12.617,0,0,0-7.211-2.212,12.606,12.606,0,0,0-6.392,1.8,14.149,14.149,0,0,0-5.08,5.08,15.013,15.013,0,0,0-1.967,7.867V33.049q0,2.458-3.114,4.589A13.028,13.028,0,0,1,101.955,39.768Zm85.713,0a12.559,12.559,0,0,1-7.539-2.131q-2.95-2.131-2.95-4.589V-31.523a5.406,5.406,0,0,1,2.95-4.753,14.263,14.263,0,0,1,7.539-1.8,14.81,14.81,0,0,1,7.539,1.8q3.114,1.8,3.114,4.753V33.049q0,2.458-3.114,4.589A13.028,13.028,0,0,1,187.668,39.768Zm56.869,0q-14.75,0-22.534-6.392t-7.785-20.158V-66.267q0-2.95,3.442-4.753a15.021,15.021,0,0,1,7.047-1.8,15.183,15.183,0,0,1,7.293,1.8q3.36,1.8,3.36,4.753v28.189H254.7a4.408,4.408,0,0,1,4.015,2.376,10.335,10.335,0,0,1,1.393,5.326,10.335,10.335,0,0,1-1.393,5.326,4.408,4.408,0,0,1-4.015,2.376H235.359V13.219q0,4.753,2.049,6.719t7.129,1.967h6.392q4.589,0,6.8,2.786a9.548,9.548,0,0,1,2.212,6.064,9.765,9.765,0,0,1-2.212,6.228q-2.213,2.786-6.8,2.786Z" transform="translate(-4.77 72.822)" fill="#0c2869"/>
      <g id="Ellipse_386" data-name="Ellipse 386" transform="translate(170.427 24.462)" fill="#fd9800" stroke="#fff" stroke-width="4">
        <circle cx="12.369" cy="12.369" r="12.369" stroke="none"/>
        <circle cx="12.369" cy="12.369" r="14.369" fill="none"/>
      </g>
    </g>
    <g id="Group_87569" data-name="Group 87569" transform="translate(8.007 -110)" clip-path="url(#clip-path)">
      <path id="Path_4" data-name="Path 4" d="M2-115H235.568v62.556H2Z" transform="translate(-9.731 107.269)" fill="#fd9800"/>
    </g>
  </g>
</svg>
