<svg xmlns="http://www.w3.org/2000/svg" width="38.53" height="38.53" viewBox="0 0 38.53 38.53">
  <path id="tool" d="M32.371,9.181a1.132,1.132,0,0,0,1.454.12l4.232-3.023a1.129,1.129,0,0,0,.473-.919V1.129A1.129,1.129,0,0,0,37.4,0H33.169a1.129,1.129,0,0,0-.919.473L29.228,4.7a1.129,1.129,0,0,0,.12,1.454l.713.713-8.983,8.983-3.1-3.1V7.779A7.788,7.788,0,0,0,10.2,0H5.964a1.129,1.129,0,0,0-.8,1.927L8.794,5.555A2.29,2.29,0,0,1,5.555,8.794L1.927,5.166A1.129,1.129,0,0,0,0,5.964V10.2a7.788,7.788,0,0,0,7.779,7.779h4.973l.793.793-7.755,6.2h0L.424,29.265a1.129,1.129,0,0,0-.093,1.68L7.585,38.2a1.129,1.129,0,0,0,.8.331l.063,0a1.129,1.129,0,0,0,.819-.422l4.293-5.366h0l6.2-7.755.793.793v4.973a7.788,7.788,0,0,0,7.779,7.779h4.232a1.129,1.129,0,0,0,.8-1.927l-3.628-3.628a2.29,2.29,0,0,1,3.239-3.239L36.6,33.364a1.129,1.129,0,0,0,1.927-.8V28.334a7.788,7.788,0,0,0-7.779-7.779H25.778l-3.1-3.1,8.983-8.983ZM12.589,30.338l-4.4-4.4L19.181,17.15l2.2,2.2Zm1.429-14.29a1.129,1.129,0,0,0-.8-.331H7.779A5.527,5.527,0,0,1,2.258,10.2V8.689l1.7,1.7A4.548,4.548,0,1,0,10.39,3.958l-1.7-1.7H10.2a5.527,5.527,0,0,1,5.521,5.521V13.22a1.129,1.129,0,0,0,.331.8l1.527,1.527-2.255,1.8ZM8.29,35.711,2.819,30.24l3.6-2.88,4.751,4.751Zm17.021-12.9h5.441a5.527,5.527,0,0,1,5.521,5.521v1.507l-1.7-1.7a4.548,4.548,0,1,0-6.431,6.431l1.7,1.7H28.334a5.527,5.527,0,0,1-5.521-5.521V25.31a1.129,1.129,0,0,0-.331-.8l-1.3-1.3,1.8-2.255,1.527,1.527a1.128,1.128,0,0,0,.8.331ZM33.75,2.258h2.522V4.78L33.291,6.909l-1.67-1.67Z" transform="translate(0 0)" fill="#fd9800"/>
</svg>
