<svg xmlns="http://www.w3.org/2000/svg" width="18" height="20" viewBox="0 0 18 20">
  <path id="icons8-online_support" d="M15.75,4a8.079,8.079,0,0,0-5.7,1.954A7.091,7.091,0,0,0,8,11.25v1.879A2.4,2.4,0,0,0,7,15a2.478,2.478,0,0,0,1.96,2.391A10.6,10.6,0,0,0,11.2,21.914,5.833,5.833,0,0,0,15.5,24a.75.75,0,1,0,0-1.5,4.3,4.3,0,0,1-3.184-1.592,9.345,9.345,0,0,1-2.052-4.315A.75.75,0,0,0,9.53,16c-.153,0-.163,0-.03,0a.989.989,0,0,1-1-1,.974.974,0,0,1,.571-.891.75.75,0,0,0,.429-.678V11.25a5.529,5.529,0,0,1,1.578-4.207A6.566,6.566,0,0,1,15.75,5.5c3.159,0,5.236,1.448,6.248,3.563.01.021.008.028-.029.039a13.762,13.762,0,0,1-3.469.4,9.981,9.981,0,0,1-3.954-.689A3.2,3.2,0,0,1,13.53,8.22a.75.75,0,0,0-1.234.271,2.824,2.824,0,0,1-1,1.164.751.751,0,0,0,.916,1.189A4.888,4.888,0,0,0,13.236,9.75a2.541,2.541,0,0,0,.718.439A11.508,11.508,0,0,0,18.5,11a17,17,0,0,0,2.749-.215A4.659,4.659,0,0,1,21.5,12.25v5a2.238,2.238,0,0,1-2.25,2.25h-.92a1.751,1.751,0,1,0,0,1.5h.921a3.76,3.76,0,0,0,3.737-3.5H23a2,2,0,0,0,2-2v-1a2,2,0,0,0-2-2v-.25a6.243,6.243,0,0,0-.292-1.843,1.546,1.546,0,0,0,.644-1.991A8.067,8.067,0,0,0,15.75,4ZM13,14a1,1,0,1,0,1,1A1,1,0,0,0,13,14Zm5,0a1,1,0,1,0,1,1A1,1,0,0,0,18,14Z" transform="translate(-7 -4)" fill="#0c2869"/>
</svg>
