<svg id="owner_1_" data-name="owner (1)" xmlns="http://www.w3.org/2000/svg" width="43.065" height="43.065" viewBox="0 0 43.065 43.065">
  <path id="Path_4403" data-name="Path 4403" d="M168.364,223.031a4.208,4.208,0,0,0,2.995-1.241,1.262,1.262,0,0,0-1.784-1.784,1.71,1.71,0,0,1-2.421,0,1.262,1.262,0,0,0-1.784,1.784A4.208,4.208,0,0,0,168.364,223.031Z" transform="translate(-151.121 -201.162)" fill="#fd9800"/>
  <path id="Path_4404" data-name="Path 4404" d="M42.624,32.554l-7.991-6.849a1.262,1.262,0,0,0-1.642,0L29.386,28.8a11.394,11.394,0,0,0-6.256-1.88H22.71v-1.7A9.683,9.683,0,0,0,26.833,18.5h.5a3.783,3.783,0,0,0,2.5-6.625,12.613,12.613,0,0,0-25.184,0,3.783,3.783,0,0,0,2.5,6.625h.5a9.684,9.684,0,0,0,4.123,6.713v1.7h-.421A11.368,11.368,0,0,0,0,38.271V41.8a1.262,1.262,0,0,0,1.262,1.262H39.7A1.262,1.262,0,0,0,40.962,41.8v-7.35l.02.017a1.262,1.262,0,1,0,1.642-1.916ZM27.336,15.981h-.421V13.458h.421a1.262,1.262,0,0,1,0,2.523ZM17.243,2.523a10.122,10.122,0,0,1,9.948,8.411h-4.5a4.8,4.8,0,0,1-4.315-2.667,1.262,1.262,0,0,0-2.257,0A4.8,4.8,0,0,1,11.8,10.934h-4.5a10.122,10.122,0,0,1,9.948-8.411ZM5.888,14.719a1.263,1.263,0,0,1,1.262-1.262H7.57v2.523H7.149A1.263,1.263,0,0,1,5.888,14.719Zm4.206,2.523V13.458H11.8a7.3,7.3,0,0,0,5.444-2.407,7.3,7.3,0,0,0,5.444,2.407h1.706v3.785a7.149,7.149,0,1,1-14.3,0Zm7.149,9.673a9.638,9.638,0,0,0,2.944-.459v2.561a2.944,2.944,0,1,1-5.888,0V26.457A9.636,9.636,0,0,0,17.243,26.916ZM2.523,38.271a8.842,8.842,0,0,1,8.832-8.832h.438a5.466,5.466,0,0,0,10.9,0h.438a8.734,8.734,0,0,1,4.242,1.083L25,32.554a1.262,1.262,0,1,0,1.642,1.916l.02-.017v6.089H9.252V37.43a1.262,1.262,0,1,0-2.523,0v3.112H2.523Zm35.915,2.271H35.074v-2.1a1.262,1.262,0,1,0-2.523,0v2.1H29.187V32.29l4.626-3.965,4.626,3.965Z" transform="translate(0 0)" fill="#fd9800"/>
  <path id="Path_4405" data-name="Path 4405" d="M377,383.262a1.262,1.262,0,0,0,1.262,1.262h1.682a1.262,1.262,0,0,0,0-2.523h-1.682A1.262,1.262,0,0,0,377,383.262Z" transform="translate(-345.29 -349.87)" fill="#fd9800"/>
</svg>
