<svg xmlns="http://www.w3.org/2000/svg" width="29.118" height="29.154" viewBox="0 0 29.118 29.154">
  <g id="search_1_" data-name="search (1)" transform="translate(-0.264 0)">
    <path id="Path_4350" data-name="Path 4350" d="M298.432,296.49a1.781,1.781,0,0,1,.083,2.517q-.04.043-.083.083a1.709,1.709,0,0,1-1.282.57,1.745,1.745,0,0,1-1.318-.57l-6.232-6.2a15.071,15.071,0,0,0,1.424-1.211,11,11,0,0,0,1.175-1.389l.142.107Z" transform="translate(-269.614 -270.506)" fill="#fd9800"/>
    <path id="Path_4351" data-name="Path 4351" d="M21.411,3.62a12.357,12.357,0,0,1,1.175,16.168,11.007,11.007,0,0,1-1.175,1.389,15.054,15.054,0,0,1-1.424,1.211A12.393,12.393,0,1,1,21.411,3.62ZM19.488,19.253a9.686,9.686,0,1,0-13.711,0A9.686,9.686,0,0,0,19.488,19.253Z" transform="translate(0 0)" fill="#fd9800"/>
  </g>
</svg>
