<svg id="shopping-cart" xmlns="http://www.w3.org/2000/svg" width="41.395" height="44.743" viewBox="0 0 41.395 44.743">
  <path id="Path_4627" data-name="Path 4627" d="M60.345,119.648a.874.874,0,0,0-.667-.309H27.673l-1.082-5.357a.874.874,0,0,0-.857-.7h-5.7a.874.874,0,1,0,0,1.748h4.988l5.311,26.3a3.868,3.868,0,1,0,5.762.8H48.21a3.868,3.868,0,1,0,6.446-.028.874.874,0,0,0-.22-1.72H31.923l-.316-1.563H53.768a4.362,4.362,0,0,0,4.318-3.661l2.454-14.8a.873.873,0,0,0-.2-.708Zm-25.365,24.6a2.12,2.12,0,1,1-2.12-2.124A2.125,2.125,0,0,1,34.98,144.252Zm16.462,2.124a2.124,2.124,0,1,1,2.12-2.124A2.125,2.125,0,0,1,51.442,146.377Zm4.92-11.506a2.62,2.62,0,0,1-2.594,2.2H31.254l-3.228-15.983H58.647Z" transform="translate(-19.157 -103.381)" fill="#fd9800"/>
  <path id="Path_4628" data-name="Path 4628" d="M255.741,234.816a.874.874,0,0,0,.865.75h2.974a.874.874,0,0,0,.865-.75l1.524-10.639a.874.874,0,0,0-.865-1h-6.022a.874.874,0,0,0-.865,1Zm4.355-9.889-1.274,8.892h-1.459l-1.274-8.892Z" transform="translate(-233.667 -203.676)" fill="#fd9800"/>
  <path id="Path_4629" data-name="Path 4629" d="M353.133,235.567h3.937a.874.874,0,0,0,.853-.682l2.393-10.639a.874.874,0,0,0-.853-1.066h-4.805a.874.874,0,0,0-.865.75l-1.524,10.639a.874.874,0,0,0,.865,1Zm2.282-10.639h2.955l-2,8.892h-2.229Z" transform="translate(-323.15 -203.677)" fill="#fd9800"/>
  <path id="Path_4630" data-name="Path 4630" d="M152.667,224.226l2.149,10.639a.874.874,0,0,0,.857.7h4.18a.874.874,0,0,0,.865-1l-1.524-10.639a.874.874,0,0,0-.865-.75h-4.805a.874.874,0,0,0-.857,1.047Zm4.9.7,1.274,8.892h-2.457l-1.8-8.892Z" transform="translate(-140.983 -203.676)" fill="#fd9800"/>
  <path id="Path_4631" data-name="Path 4631" d="M228.9,13.362a6.681,6.681,0,1,0-6.681-6.681A6.688,6.688,0,0,0,228.9,13.362Zm0-11.614a4.933,4.933,0,1,1-4.933,4.933A4.939,4.939,0,0,1,228.9,1.748Z" transform="translate(-204.473 0)" fill="#fd9800"/>
  <path id="Path_4632" data-name="Path 4632" d="M269.05,54.024a.874.874,0,0,0,.63.268h.029a.874.874,0,0,0,.64-.311l2.48-2.945a.874.874,0,1,0-1.337-1.126l-1.855,2.2-1-1.04a.874.874,0,1,0-1.26,1.211Z" transform="translate(-245.462 -45.265)" fill="#fd9800"/>
</svg>
