<svg xmlns="http://www.w3.org/2000/svg" width="13.984" height="20.002" viewBox="0 0 13.984 20.002">
  <path id="icons8-visit" d="M12,2.01A7,7,0,0,0,5.008,9c0,4.483,5.967,11.765,6.221,12.072l.771.936.771-.936c.254-.308,6.221-7.589,6.221-12.072A7,7,0,0,0,12,2.01Zm0,2A5,5,0,0,1,16.992,9c0,2.7-3.114,7.357-4.992,9.822C10.122,16.363,7.008,11.713,7.008,9A5,5,0,0,1,12,4.01ZM12,6a3,3,0,1,0,3,3,2.968,2.968,0,0,0-.143-.869,1.5,1.5,0,1,1-1.988-1.988A2.968,2.968,0,0,0,12,6Z" transform="translate(-5.008 -2.01)" fill="#414141"/>
</svg>
