<svg xmlns="http://www.w3.org/2000/svg" width="14.769" height="16" viewBox="0 0 14.769 16">
  <path id="icons8-remove" d="M11.949,4a.615.615,0,0,0-.588.821H9.545a2.257,2.257,0,0,0-1.877,1L6.7,7.282H6.615a.615.615,0,1,0,0,1.231h.313a.615.615,0,0,0,.159,0L8.1,17.984A2.264,2.264,0,0,0,10.346,20h6.076a2.264,2.264,0,0,0,2.244-2.016l1.015-9.468a.615.615,0,0,0,.156,0h.317a.615.615,0,1,0,0-1.231h-.081L19.1,5.825a2.258,2.258,0,0,0-1.877-1H15.409A.615.615,0,0,0,14.82,4Zm-2.4,2.051h7.679a1.024,1.024,0,0,1,.853.457l.516.774H8.175l.516-.774h0A1.021,1.021,0,0,1,9.545,6.051ZM8.326,8.513H18.443l-1,9.34a1.019,1.019,0,0,1-1.02.917H10.346a1.018,1.018,0,0,1-1.019-.917Z" transform="translate(-6 -4)" fill="#0c2869"/>
</svg>
